<svg xmlns="http://www.w3.org/2000/svg" viewBox="0 0 227.81 100.69"><defs><style>.cls-1{font-size:13.3px;font-family:Kanit-Regular, Kanit;}.cls-1,.cls-10,.cls-9{fill:#009d6b;}.cls-2{letter-spacing:0.6em;}.cls-3{letter-spacing:0.59em;}.cls-4{letter-spacing:0.6em;}.cls-5{letter-spacing:0.56em;}.cls-6{letter-spacing:0.58em;}.cls-7{letter-spacing:0.6em;}.cls-8{letter-spacing:0.59em;}.cls-10{font-size:24.13px;font-family:Quantify-Bold, Quantify;font-weight:700;}</style></defs><title>Recurso 4</title><g id="Capa_2" data-name="Capa 2"><g id="Capa_1-2" data-name="Capa 1"><text class="cls-1" transform="translate(0 96.03) scale(0.99 1)"><tspan class="cls-2">P</tspan><tspan class="cls-3" x="15.83" y="0">R</tspan><tspan class="cls-4" x="31.73" y="0">OG</tspan><tspan class="cls-5" x="65.49" y="0">R</tspan><tspan class="cls-6" x="80.99" y="0">AM</tspan><tspan class="cls-7" x="115.67" y="0">ADO</tspan><tspan x="166.83" y="0">R</tspan><tspan class="cls-8" x="174.94" y="0"> </tspan><tspan class="cls-7" x="187.74" y="0">WE</tspan><tspan x="222.58" y="0">B</tspan></text><path class="cls-9" d="M148.86,0H78.94a7.46,7.46,0,0,0-7.45,7.46v46.1A7.46,7.46,0,0,0,78.94,61H104v9.45H100.3a2.49,2.49,0,0,0,0,5h27.2a2.49,2.49,0,1,0,0-5h-3.74V61h25.1a7.46,7.46,0,0,0,7.46-7.45V7.46A7.47,7.47,0,0,0,148.86,0ZM118.79,70.46H109V61h9.78Zm32.56-16.9A2.49,2.49,0,0,1,148.86,56H78.94a2.48,2.48,0,0,1-2.48-2.48V49.78h74.89Zm0-8.75H76.46V7.46A2.49,2.49,0,0,1,78.94,5h69.92a2.5,2.5,0,0,1,2.49,2.49Z"/><text class="cls-10" transform="translate(98.75 35.27)">JC</text><path class="cls-9" d="M95,21.58l-6,6,6,6a1.73,1.73,0,0,1,0,2.44,1.74,1.74,0,0,1-2.44,0l-7.23-7.23a1.74,1.74,0,0,1-.5-1.22,1.72,1.72,0,0,1,.5-1.22l7.23-7.23A1.72,1.72,0,0,1,95,21.58ZM141,26.38l-7.24-7.23a1.72,1.72,0,0,0-2.43,2.43l6,6-6,6a1.71,1.71,0,0,0,0,2.44,1.69,1.69,0,0,0,1.22.5,1.67,1.67,0,0,0,1.21-.5L141,28.82a1.76,1.76,0,0,0,.5-1.22A1.72,1.72,0,0,0,141,26.38Z"/></g></g></svg>